{
	"asset":{
		"generator":"Khronos glTF Blender I/O v4.4.56",
		"version":"2.0"
	},
	"scene":0,
	"scenes":[
		{
			"name":"Scene",
			"nodes":[
				0
			]
		}
	],
	"nodes":[
		{
			"mesh":0,
			"name":"mech_crate"
		}
	],
	"materials":[
		{
			"alphaMode":"BLEND",
			"doubleSided":true,
			"name":"BeerCrate",
			"pbrMetallicRoughness":{
				"baseColorFactor":[
					0.800000011920929,
					0.800000011920929,
					0.800000011920929,
					1
				],
				"metallicFactor":0,
				"roughnessFactor":0.5
			}
		},
		{
			"doubleSided":true,
			"name":"piwo_256",
			"pbrMetallicRoughness":{
				"baseColorFactor":[
					0.800000011920929,
					0.800000011920929,
					0.800000011920929,
					1
				],
				"metallicFactor":0
			}
		}
	],
	"meshes":[
		{
			"name":"Cube.004",
			"primitives":[
				{
					"attributes":{
						"POSITION":0,
						"NORMAL":1,
						"TEXCOORD_0":2
					},
					"indices":3,
					"material":0
				},
				{
					"attributes":{
						"POSITION":4,
						"NORMAL":5,
						"TEXCOORD_0":6
					},
					"indices":7,
					"material":1
				}
			]
		}
	],
	"accessors":[
		{
			"bufferView":0,
			"componentType":5126,
			"count":52,
			"max":[
				0.17484726011753082,
				0.27975741028785706,
				0.2147895097732544
			],
			"min":[
				-0.17484726011753082,
				0,
				-0.2147895097732544
			],
			"type":"VEC3"
		},
		{
			"bufferView":1,
			"componentType":5126,
			"count":52,
			"type":"VEC3"
		},
		{
			"bufferView":2,
			"componentType":5126,
			"count":52,
			"type":"VEC2"
		},
		{
			"bufferView":3,
			"componentType":5123,
			"count":90,
			"type":"SCALAR"
		},
		{
			"bufferView":4,
			"componentType":5126,
			"count":1940,
			"max":[
				0.15919135510921478,
				0.29990509152412415,
				0.19978711009025574
			],
			"min":[
				-0.16031499207019806,
				0.0037510660476982594,
				-0.1995958387851715
			],
			"type":"VEC3"
		},
		{
			"bufferView":5,
			"componentType":5126,
			"count":1940,
			"type":"VEC3"
		},
		{
			"bufferView":6,
			"componentType":5126,
			"count":1940,
			"type":"VEC2"
		},
		{
			"bufferView":7,
			"componentType":5123,
			"count":6720,
			"type":"SCALAR"
		}
	],
	"bufferViews":[
		{
			"buffer":0,
			"byteLength":624,
			"byteOffset":0,
			"target":34962
		},
		{
			"buffer":0,
			"byteLength":624,
			"byteOffset":624,
			"target":34962
		},
		{
			"buffer":0,
			"byteLength":416,
			"byteOffset":1248,
			"target":34962
		},
		{
			"buffer":0,
			"byteLength":180,
			"byteOffset":1664,
			"target":34963
		},
		{
			"buffer":0,
			"byteLength":23280,
			"byteOffset":1844,
			"target":34962
		},
		{
			"buffer":0,
			"byteLength":23280,
			"byteOffset":25124,
			"target":34962
		},
		{
			"buffer":0,
			"byteLength":15520,
			"byteOffset":48404,
			"target":34962
		},
		{
			"buffer":0,
			"byteLength":13440,
			"byteOffset":63924,
			"target":34963
		}
	],
	"buffers":[
		{
			"byteLength":77364,
			"uri":"mech_crate.bin"
		}
	]
}
