{
	"asset":{
		"generator":"Khronos glTF Blender I/O v4.4.56",
		"version":"2.0"
	},
	"scene":0,
	"scenes":[
		{
			"name":"Scene",
			"nodes":[
				3
			]
		}
	],
	"nodes":[
		{
			"mesh":0,
			"name":"Cube",
			"translation":[
				0.6172107458114624,
				0.4141324758529663,
				0.008959770202636719
			]
		},
		{
			"mesh":1,
			"name":"Cube.001",
			"translation":[
				0.6172107458114624,
				0.4141324758529663,
				1.19047212600708
			]
		},
		{
			"mesh":2,
			"name":"Plane.001"
		},
		{
			"children":[
				0,
				1,
				2
			],
			"mesh":3,
			"name":"Cube.002"
		}
	],
	"materials":[
		{
			"doubleSided":true,
			"name":"Mat_LodowkaNaPiwo",
			"pbrMetallicRoughness":{
				"baseColorTexture":{
					"index":0
				},
				"metallicFactor":0,
				"metallicRoughnessTexture":{
					"index":1
				}
			}
		}
	],
	"meshes":[
		{
			"name":"Cube.001",
			"primitives":[
				{
					"attributes":{
						"POSITION":0,
						"NORMAL":1,
						"TEXCOORD_0":2
					},
					"indices":3,
					"material":0
				}
			]
		},
		{
			"name":"Cube.002",
			"primitives":[
				{
					"attributes":{
						"POSITION":4,
						"NORMAL":5,
						"TEXCOORD_0":6
					},
					"indices":7,
					"material":0
				}
			]
		},
		{
			"name":"Plane.004",
			"primitives":[
				{
					"attributes":{
						"POSITION":8,
						"NORMAL":9,
						"TEXCOORD_0":10
					},
					"indices":11,
					"material":0
				}
			]
		},
		{
			"name":"Cube.005",
			"primitives":[
				{
					"attributes":{
						"POSITION":12,
						"NORMAL":13,
						"TEXCOORD_0":14
					},
					"indices":15,
					"material":0
				}
			]
		}
	],
	"textures":[
		{
			"sampler":0,
			"source":0
		},
		{
			"sampler":0,
			"source":1
		}
	],
	"images":[
		{
			"mimeType":"image/png",
			"name":"LodowkaNaPiwo_Base",
			"uri":"textures/LodowkaNaPiwo_Base.png"
		},
		{
			"mimeType":"image/png",
			"name":"LodowkaNaPiwo_Roughness",
			"uri":"textures/LodowkaNaPiwo_Roughness.png"
		}
	],
	"accessors":[
		{
			"bufferView":0,
			"componentType":5126,
			"count":50,
			"max":[
				0.04349441081285477,
				1.5858672857284546,
				0.5909093618392944
			],
			"min":[
				-0.01749483495950699,
				0,
				-0.008959795348346233
			],
			"type":"VEC3"
		},
		{
			"bufferView":1,
			"componentType":5126,
			"count":50,
			"type":"VEC3"
		},
		{
			"bufferView":2,
			"componentType":5126,
			"count":50,
			"type":"VEC2"
		},
		{
			"bufferView":3,
			"componentType":5123,
			"count":84,
			"type":"SCALAR"
		},
		{
			"bufferView":4,
			"componentType":5126,
			"count":50,
			"max":[
				0.04349434748291969,
				1.5858672857284546,
				0.008959795348346233
			],
			"min":[
				-0.01749497279524803,
				-1.5294470134818994e-09,
				-0.5909093618392944
			],
			"type":"VEC3"
		},
		{
			"bufferView":5,
			"componentType":5126,
			"count":50,
			"type":"VEC3"
		},
		{
			"bufferView":6,
			"componentType":5126,
			"count":50,
			"type":"VEC2"
		},
		{
			"bufferView":7,
			"componentType":5123,
			"count":84,
			"type":"SCALAR"
		},
		{
			"bufferView":8,
			"componentType":5126,
			"count":60,
			"max":[
				0.5628724098205566,
				1.7606086730957031,
				1.1764546632766724
			],
			"min":[
				0.06681656837463379,
				0.653390645980835,
				0.022670626640319824
			],
			"type":"VEC3"
		},
		{
			"bufferView":9,
			"componentType":5126,
			"count":60,
			"type":"VEC3"
		},
		{
			"bufferView":10,
			"componentType":5126,
			"count":60,
			"type":"VEC2"
		},
		{
			"bufferView":11,
			"componentType":5123,
			"count":90,
			"type":"SCALAR"
		},
		{
			"bufferView":12,
			"componentType":5126,
			"count":84,
			"max":[
				0.6316498517990112,
				2,
				1.1994318962097168
			],
			"min":[
				0,
				0,
				0
			],
			"type":"VEC3"
		},
		{
			"bufferView":13,
			"componentType":5126,
			"count":84,
			"type":"VEC3"
		},
		{
			"bufferView":14,
			"componentType":5126,
			"count":84,
			"type":"VEC2"
		},
		{
			"bufferView":15,
			"componentType":5123,
			"count":156,
			"type":"SCALAR"
		}
	],
	"bufferViews":[
		{
			"buffer":0,
			"byteLength":600,
			"byteOffset":0,
			"target":34962
		},
		{
			"buffer":0,
			"byteLength":600,
			"byteOffset":600,
			"target":34962
		},
		{
			"buffer":0,
			"byteLength":400,
			"byteOffset":1200,
			"target":34962
		},
		{
			"buffer":0,
			"byteLength":168,
			"byteOffset":1600,
			"target":34963
		},
		{
			"buffer":0,
			"byteLength":600,
			"byteOffset":1768,
			"target":34962
		},
		{
			"buffer":0,
			"byteLength":600,
			"byteOffset":2368,
			"target":34962
		},
		{
			"buffer":0,
			"byteLength":400,
			"byteOffset":2968,
			"target":34962
		},
		{
			"buffer":0,
			"byteLength":168,
			"byteOffset":3368,
			"target":34963
		},
		{
			"buffer":0,
			"byteLength":720,
			"byteOffset":3536,
			"target":34962
		},
		{
			"buffer":0,
			"byteLength":720,
			"byteOffset":4256,
			"target":34962
		},
		{
			"buffer":0,
			"byteLength":480,
			"byteOffset":4976,
			"target":34962
		},
		{
			"buffer":0,
			"byteLength":180,
			"byteOffset":5456,
			"target":34963
		},
		{
			"buffer":0,
			"byteLength":1008,
			"byteOffset":5636,
			"target":34962
		},
		{
			"buffer":0,
			"byteLength":1008,
			"byteOffset":6644,
			"target":34962
		},
		{
			"buffer":0,
			"byteLength":672,
			"byteOffset":7652,
			"target":34962
		},
		{
			"buffer":0,
			"byteLength":312,
			"byteOffset":8324,
			"target":34963
		}
	],
	"samplers":[
		{
			"magFilter":9729,
			"minFilter":9987
		}
	],
	"buffers":[
		{
			"byteLength":8636,
			"uri":"lodowka_na_piwo.bin"
		}
	]
}
