{
	"asset":{
		"generator":"Khronos glTF Blender I/O v4.4.56",
		"version":"2.0"
	},
	"scene":0,
	"scenes":[
		{
			"name":"Scene",
			"nodes":[
				0,
				2,
				4
			]
		}
	],
	"nodes":[
		{
			"mesh":0,
			"name":"Plane",
			"translation":[
				0.07135380804538727,
				0,
				0
			]
		},
		{
			"mesh":1,
			"name":"Plane.001"
		},
		{
			"children":[
				1
			],
			"mesh":2,
			"name":"Plane.002",
			"translation":[
				0.07135380804538727,
				0,
				0
			]
		},
		{
			"mesh":3,
			"name":"Cube.002",
			"scale":[
				1,
				1,
				1.084370732307434
			],
			"translation":[
				-4.779949188232422,
				0,
				7.747802257537842
			]
		},
		{
			"children":[
				3
			],
			"mesh":4,
			"name":"Cube",
			"translation":[
				0.07135380804538727,
				0,
				0
			]
		}
	],
	"materials":[
		{
			"doubleSided":true,
			"name":"Mat_MainRoom",
			"pbrMetallicRoughness":{
				"baseColorTexture":{
					"index":0
				},
				"metallicFactor":0,
				"metallicRoughnessTexture":{
					"index":1
				}
			}
		},
		{
			"doubleSided":true,
			"name":"Mat_Okno",
			"pbrMetallicRoughness":{
				"baseColorTexture":{
					"index":2
				},
				"metallicFactor":0,
				"metallicRoughnessTexture":{
					"index":3
				}
			}
		},
		{
			"doubleSided":true,
			"name":"Mat_Drzwi",
			"pbrMetallicRoughness":{
				"baseColorTexture":{
					"index":4
				},
				"metallicFactor":0,
				"roughnessFactor":0.5
			}
		}
	],
	"meshes":[
		{
			"name":"Plane.001",
			"primitives":[
				{
					"attributes":{
						"POSITION":0,
						"NORMAL":1,
						"TEXCOORD_0":2
					},
					"indices":3,
					"material":0
				}
			]
		},
		{
			"name":"Plane.003",
			"primitives":[
				{
					"attributes":{
						"POSITION":4,
						"NORMAL":5,
						"TEXCOORD_0":6
					},
					"indices":7,
					"material":1
				}
			]
		},
		{
			"name":"Plane.002",
			"primitives":[
				{
					"attributes":{
						"POSITION":8,
						"NORMAL":9,
						"TEXCOORD_0":10
					},
					"indices":11,
					"material":1
				}
			]
		},
		{
			"name":"Cube.002",
			"primitives":[
				{
					"attributes":{
						"POSITION":12,
						"NORMAL":13,
						"TEXCOORD_0":14
					},
					"indices":15,
					"material":2
				},
				{
					"attributes":{
						"POSITION":16,
						"NORMAL":17,
						"TEXCOORD_0":18
					},
					"indices":19,
					"material":2
				}
			]
		},
		{
			"name":"Cube",
			"primitives":[
				{
					"attributes":{
						"POSITION":20,
						"NORMAL":21,
						"TEXCOORD_0":22
					},
					"indices":23,
					"material":2
				}
			]
		}
	],
	"textures":[
		{
			"sampler":0,
			"source":0
		},
		{
			"sampler":0,
			"source":1
		},
		{
			"sampler":0,
			"source":2
		},
		{
			"sampler":0,
			"source":3
		},
		{
			"sampler":0,
			"source":4
		}
	],
	"images":[
		{
			"mimeType":"image/png",
			"name":"MainRoom_Base",
			"uri":"textures/MainRoom_Base.png"
		},
		{
			"mimeType":"image/png",
			"name":"MainRoom_Roughness",
			"uri":"textures/MainRoom_Roughness.png"
		},
		{
			"mimeType":"image/png",
			"name":"Window_Base",
			"uri":"textures/Window_Base.png"
		},
		{
			"mimeType":"image/png",
			"name":"Window_Roughness",
			"uri":"textures/Window_Roughness.png"
		},
		{
			"mimeType":"image/png",
			"name":"Doors",
			"uri":"textures/Doors.png"
		}
	],
	"accessors":[
		{
			"bufferView":0,
			"componentType":5126,
			"count":252,
			"max":[
				-0.07135380804538727,
				2.926823616027832,
				7.80787467956543
			],
			"min":[
				-5.721534252166748,
				0,
				-0.0028353037778288126
			],
			"type":"VEC3"
		},
		{
			"bufferView":1,
			"componentType":5126,
			"count":252,
			"type":"VEC3"
		},
		{
			"bufferView":2,
			"componentType":5126,
			"count":252,
			"type":"VEC2"
		},
		{
			"bufferView":3,
			"componentType":5123,
			"count":432,
			"type":"SCALAR"
		},
		{
			"bufferView":4,
			"componentType":5126,
			"count":4,
			"max":[
				-1.4168462753295898,
				2.282329559326172,
				7.789170265197754
			],
			"min":[
				-3.3562793731689453,
				1.0148983001708984,
				7.789170265197754
			],
			"type":"VEC3"
		},
		{
			"bufferView":5,
			"componentType":5126,
			"count":4,
			"type":"VEC3"
		},
		{
			"bufferView":6,
			"componentType":5126,
			"count":4,
			"type":"VEC2"
		},
		{
			"bufferView":7,
			"componentType":5123,
			"count":6,
			"type":"SCALAR"
		},
		{
			"bufferView":8,
			"componentType":5126,
			"count":96,
			"max":[
				-1.3593109846115112,
				2.4656224250793457,
				7.890649318695068
			],
			"min":[
				-3.4138145446777344,
				0.8316048979759216,
				7.641693592071533
			],
			"type":"VEC3"
		},
		{
			"bufferView":9,
			"componentType":5126,
			"count":96,
			"type":"VEC3"
		},
		{
			"bufferView":10,
			"componentType":5126,
			"count":96,
			"type":"VEC2"
		},
		{
			"bufferView":11,
			"componentType":5123,
			"count":198,
			"type":"SCALAR"
		},
		{
			"bufferView":12,
			"componentType":5126,
			"count":72,
			"max":[
				0.7866901755332947,
				2.1135571002960205,
				0.06844779849052429
			],
			"min":[
				-5.960464477539063e-08,
				0.1253836750984192,
				-0.06655481457710266
			],
			"type":"VEC3"
		},
		{
			"bufferView":13,
			"componentType":5126,
			"count":72,
			"type":"VEC3"
		},
		{
			"bufferView":14,
			"componentType":5126,
			"count":72,
			"type":"VEC2"
		},
		{
			"bufferView":15,
			"componentType":5123,
			"count":132,
			"type":"SCALAR"
		},
		{
			"bufferView":16,
			"componentType":5126,
			"count":8,
			"max":[
				0.7242789268493652,
				2.0534353256225586,
				0.00800270028412342
			],
			"min":[
				0.06191202998161316,
				1.2529770135879517,
				-0.007364869117736816
			],
			"type":"VEC3"
		},
		{
			"bufferView":17,
			"componentType":5126,
			"count":8,
			"type":"VEC3"
		},
		{
			"bufferView":18,
			"componentType":5126,
			"count":8,
			"type":"VEC2"
		},
		{
			"bufferView":19,
			"componentType":5123,
			"count":12,
			"type":"SCALAR"
		},
		{
			"bufferView":20,
			"componentType":5126,
			"count":48,
			"max":[
				-3.9175946712493896,
				2.188067674636841,
				7.8242268562316895
			],
			"min":[
				-4.855612754821777,
				0.12538361549377441,
				7.673144340515137
			],
			"type":"VEC3"
		},
		{
			"bufferView":21,
			"componentType":5126,
			"count":48,
			"type":"VEC3"
		},
		{
			"bufferView":22,
			"componentType":5126,
			"count":48,
			"type":"VEC2"
		},
		{
			"bufferView":23,
			"componentType":5123,
			"count":84,
			"type":"SCALAR"
		}
	],
	"bufferViews":[
		{
			"buffer":0,
			"byteLength":3024,
			"byteOffset":0,
			"target":34962
		},
		{
			"buffer":0,
			"byteLength":3024,
			"byteOffset":3024,
			"target":34962
		},
		{
			"buffer":0,
			"byteLength":2016,
			"byteOffset":6048,
			"target":34962
		},
		{
			"buffer":0,
			"byteLength":864,
			"byteOffset":8064,
			"target":34963
		},
		{
			"buffer":0,
			"byteLength":48,
			"byteOffset":8928,
			"target":34962
		},
		{
			"buffer":0,
			"byteLength":48,
			"byteOffset":8976,
			"target":34962
		},
		{
			"buffer":0,
			"byteLength":32,
			"byteOffset":9024,
			"target":34962
		},
		{
			"buffer":0,
			"byteLength":12,
			"byteOffset":9056,
			"target":34963
		},
		{
			"buffer":0,
			"byteLength":1152,
			"byteOffset":9068,
			"target":34962
		},
		{
			"buffer":0,
			"byteLength":1152,
			"byteOffset":10220,
			"target":34962
		},
		{
			"buffer":0,
			"byteLength":768,
			"byteOffset":11372,
			"target":34962
		},
		{
			"buffer":0,
			"byteLength":396,
			"byteOffset":12140,
			"target":34963
		},
		{
			"buffer":0,
			"byteLength":864,
			"byteOffset":12536,
			"target":34962
		},
		{
			"buffer":0,
			"byteLength":864,
			"byteOffset":13400,
			"target":34962
		},
		{
			"buffer":0,
			"byteLength":576,
			"byteOffset":14264,
			"target":34962
		},
		{
			"buffer":0,
			"byteLength":264,
			"byteOffset":14840,
			"target":34963
		},
		{
			"buffer":0,
			"byteLength":96,
			"byteOffset":15104,
			"target":34962
		},
		{
			"buffer":0,
			"byteLength":96,
			"byteOffset":15200,
			"target":34962
		},
		{
			"buffer":0,
			"byteLength":64,
			"byteOffset":15296,
			"target":34962
		},
		{
			"buffer":0,
			"byteLength":24,
			"byteOffset":15360,
			"target":34963
		},
		{
			"buffer":0,
			"byteLength":576,
			"byteOffset":15384,
			"target":34962
		},
		{
			"buffer":0,
			"byteLength":576,
			"byteOffset":15960,
			"target":34962
		},
		{
			"buffer":0,
			"byteLength":384,
			"byteOffset":16536,
			"target":34962
		},
		{
			"buffer":0,
			"byteLength":168,
			"byteOffset":16920,
			"target":34963
		}
	],
	"samplers":[
		{
			"magFilter":9729,
			"minFilter":9987
		}
	],
	"buffers":[
		{
			"byteLength":17088,
			"uri":"main_room.bin"
		}
	]
}
