{
	"asset":{
		"generator":"Khronos glTF Blender I/O v5.0.21",
		"version":"2.0"
	},
	"scene":0,
	"scenes":[
		{
			"name":"Scene",
			"nodes":[
				1
			]
		}
	],
	"nodes":[
		{
			"mesh":0,
			"name":"Cube.004",
			"translation":[
				0.2869217097759247,
				0.8870081305503845,
				0
			]
		},
		{
			"children":[
				0
			],
			"mesh":1,
			"name":"Kosz",
			"translation":[
				-0.2756640613079071,
				-0.8870081305503845,
				0.0008862875401973724
			]
		}
	],
	"materials":[
		{
			"doubleSided":true,
			"name":"mat_Kontener",
			"pbrMetallicRoughness":{
				"baseColorTexture":{
					"index":0
				},
				"metallicFactor":0,
				"metallicRoughnessTexture":{
					"index":1
				}
			}
		}
	],
	"meshes":[
		{
			"name":"Cube.004",
			"primitives":[
				{
					"attributes":{
						"POSITION":0,
						"NORMAL":1,
						"TEXCOORD_0":2
					},
					"indices":3,
					"material":0
				}
			]
		},
		{
			"name":"Cube.002",
			"primitives":[
				{
					"attributes":{
						"POSITION":4,
						"NORMAL":5,
						"TEXCOORD_0":6
					},
					"indices":7,
					"material":0
				}
			]
		}
	],
	"textures":[
		{
			"sampler":0,
			"source":0
		},
		{
			"sampler":1,
			"source":1
		}
	],
	"images":[
		{
			"mimeType":"image/png",
			"name":"tex_Kontener_Base256",
			"uri":"textures/tex_Kontener_Base256.png"
		},
		{
			"mimeType":"image/png",
			"name":"tex_Kontener_Roughness256",
			"uri":"textures/tex_Kontener_Roughness256.png"
		}
	],
	"accessors":[
		{
			"bufferView":0,
			"componentType":5126,
			"count":64,
			"max":[
				2.9802322387695312e-08,
				0.06299719214439392,
				0.25684842467308044
			],
			"min":[
				-0.5235569477081299,
				0,
				-0.25684937834739685
			],
			"type":"VEC3"
		},
		{
			"bufferView":1,
			"componentType":5126,
			"count":64,
			"type":"VEC3"
		},
		{
			"bufferView":2,
			"componentType":5126,
			"count":64,
			"type":"VEC2"
		},
		{
			"bufferView":3,
			"componentType":5123,
			"count":156,
			"type":"SCALAR"
		},
		{
			"bufferView":4,
			"componentType":5126,
			"count":139,
			"max":[
				0.2869217097759247,
				0.8870081305503845,
				0.25684839487075806
			],
			"min":[
				-0.2366352379322052,
				-1.0728836059570312e-06,
				-0.25684934854507446
			],
			"type":"VEC3"
		},
		{
			"bufferView":5,
			"componentType":5126,
			"count":139,
			"type":"VEC3"
		},
		{
			"bufferView":6,
			"componentType":5126,
			"count":139,
			"type":"VEC2"
		},
		{
			"bufferView":7,
			"componentType":5123,
			"count":300,
			"type":"SCALAR"
		}
	],
	"bufferViews":[
		{
			"buffer":0,
			"byteLength":768,
			"byteOffset":0,
			"target":34962
		},
		{
			"buffer":0,
			"byteLength":768,
			"byteOffset":768,
			"target":34962
		},
		{
			"buffer":0,
			"byteLength":512,
			"byteOffset":1536,
			"target":34962
		},
		{
			"buffer":0,
			"byteLength":312,
			"byteOffset":2048,
			"target":34963
		},
		{
			"buffer":0,
			"byteLength":1668,
			"byteOffset":2360,
			"target":34962
		},
		{
			"buffer":0,
			"byteLength":1668,
			"byteOffset":4028,
			"target":34962
		},
		{
			"buffer":0,
			"byteLength":1112,
			"byteOffset":5696,
			"target":34962
		},
		{
			"buffer":0,
			"byteLength":600,
			"byteOffset":6808,
			"target":34963
		}
	],
	"samplers":[
		{
			"magFilter":9728,
			"minFilter":9984
		},
		{
			"magFilter":9729,
			"minFilter":9987
		}
	],
	"buffers":[
		{
			"byteLength":7408,
			"uri":"Kosz.bin"
		}
	]
}
