{
	"asset":{
		"generator":"Khronos glTF Blender I/O v5.0.21",
		"version":"2.0"
	},
	"scene":0,
	"scenes":[
		{
			"name":"Scene",
			"nodes":[
				0,
				3,
				4
			]
		}
	],
	"nodes":[
		{
			"mesh":0,
			"name":"MainRoom",
			"translation":[
				0.0713537335395813,
				0,
				0.002830993616953492
			]
		},
		{
			"mesh":1,
			"name":"Glass"
		},
		{
			"mesh":2,
			"name":"Grate"
		},
		{
			"children":[
				1,
				2
			],
			"mesh":3,
			"name":"OknoRama",
			"translation":[
				0.0713537335395813,
				0,
				0.002830993616953492
			]
		},
		{
			"mesh":4,
			"name":"Drzwi01",
			"translation":[
				0.0713537335395813,
				0,
				0.002830993616953492
			]
		}
	],
	"materials":[
		{
			"doubleSided":true,
			"name":"Mat_MainRoom",
			"pbrMetallicRoughness":{
				"baseColorTexture":{
					"index":0
				},
				"metallicFactor":0,
				"metallicRoughnessTexture":{
					"index":1
				}
			}
		},
		{
			"alphaMode":"BLEND",
			"doubleSided":true,
			"name":"Mat_Okno",
			"pbrMetallicRoughness":{
				"baseColorTexture":{
					"index":2
				},
				"metallicFactor":0,
				"metallicRoughnessTexture":{
					"index":3
				}
			}
		},
		{
			"alphaMode":"BLEND",
			"doubleSided":true,
			"name":"Mat_OknoKrata",
			"pbrMetallicRoughness":{
				"baseColorTexture":{
					"index":4
				},
				"metallicFactor":0,
				"metallicRoughnessTexture":{
					"index":5
				}
			}
		},
		{
			"doubleSided":true,
			"name":"Mat_OknoRama",
			"pbrMetallicRoughness":{
				"baseColorTexture":{
					"index":6
				},
				"metallicFactor":0,
				"metallicRoughnessTexture":{
					"index":7
				}
			}
		},
		{
			"alphaMode":"BLEND",
			"doubleSided":true,
			"name":"Mat_Drzwi",
			"pbrMetallicRoughness":{
				"baseColorTexture":{
					"index":8
				},
				"metallicFactor":0,
				"metallicRoughnessTexture":{
					"index":9
				}
			}
		}
	],
	"meshes":[
		{
			"name":"Plane.001",
			"primitives":[
				{
					"attributes":{
						"POSITION":0,
						"NORMAL":1,
						"TEXCOORD_0":2
					},
					"indices":3,
					"material":0
				}
			]
		},
		{
			"name":"Plane.003",
			"primitives":[
				{
					"attributes":{
						"POSITION":4,
						"NORMAL":5,
						"TEXCOORD_0":6
					},
					"indices":7,
					"material":1
				}
			]
		},
		{
			"name":"Plane.010",
			"primitives":[
				{
					"attributes":{
						"POSITION":8,
						"NORMAL":9,
						"TEXCOORD_0":10
					},
					"indices":11,
					"material":2
				}
			]
		},
		{
			"name":"Plane.002",
			"primitives":[
				{
					"attributes":{
						"POSITION":12,
						"NORMAL":13,
						"TEXCOORD_0":14
					},
					"indices":15,
					"material":3
				}
			]
		},
		{
			"name":"Cube.001",
			"primitives":[
				{
					"attributes":{
						"POSITION":16,
						"NORMAL":17,
						"TEXCOORD_0":18
					},
					"indices":19,
					"material":4
				}
			]
		}
	],
	"textures":[
		{
			"sampler":0,
			"source":0
		},
		{
			"sampler":1,
			"source":1
		},
		{
			"sampler":0,
			"source":2
		},
		{
			"sampler":0,
			"source":3
		},
		{
			"sampler":0,
			"source":2
		},
		{
			"sampler":0,
			"source":3
		},
		{
			"sampler":0,
			"source":2
		},
		{
			"sampler":0,
			"source":3
		},
		{
			"sampler":0,
			"source":4
		},
		{
			"sampler":0,
			"source":5
		}
	],
	"images":[
		{
			"mimeType":"image/png",
			"name":"tex_MainRoom_Base1024",
			"uri":"Textures/tex_MainRoom_Base1024.png"
		},
		{
			"mimeType":"image/png",
			"name":"tex_MainRoom_Roughness1024",
			"uri":"Textures/tex_MainRoom_Roughness1024.png"
		},
		{
			"mimeType":"image/png",
			"name":"Window_Base",
			"uri":"Textures/Window_Base.png"
		},
		{
			"mimeType":"image/png",
			"name":"Window_Roughness",
			"uri":"Textures/Window_Roughness.png"
		},
		{
			"mimeType":"image/png",
			"name":"Doors_Base",
			"uri":"Textures/Doors_Base.png"
		},
		{
			"mimeType":"image/png",
			"name":"Doors_Roughness",
			"uri":"Textures/Doors_Roughness.png"
		}
	],
	"accessors":[
		{
			"bufferView":0,
			"componentType":5126,
			"count":252,
			"max":[
				-0.07135380804538727,
				2.926823616027832,
				7.80787467956543
			],
			"min":[
				-5.721534252166748,
				0,
				-0.0028353037778288126
			],
			"type":"VEC3"
		},
		{
			"bufferView":1,
			"componentType":5126,
			"count":252,
			"type":"VEC3"
		},
		{
			"bufferView":2,
			"componentType":5126,
			"count":252,
			"type":"VEC2"
		},
		{
			"bufferView":3,
			"componentType":5123,
			"count":432,
			"type":"SCALAR"
		},
		{
			"bufferView":4,
			"componentType":5126,
			"count":4,
			"max":[
				-1.4168462753295898,
				2.282329559326172,
				7.789170265197754
			],
			"min":[
				-3.3562793731689453,
				1.0148983001708984,
				7.789170265197754
			],
			"type":"VEC3"
		},
		{
			"bufferView":5,
			"componentType":5126,
			"count":4,
			"type":"VEC3"
		},
		{
			"bufferView":6,
			"componentType":5126,
			"count":4,
			"type":"VEC2"
		},
		{
			"bufferView":7,
			"componentType":5123,
			"count":6,
			"type":"SCALAR"
		},
		{
			"bufferView":8,
			"componentType":5126,
			"count":12,
			"max":[
				-1.4168462753295898,
				2.4656224250793457,
				7.890649318695068
			],
			"min":[
				-3.3562793731689453,
				0.8316048979759216,
				7.8078742027282715
			],
			"type":"VEC3"
		},
		{
			"bufferView":9,
			"componentType":5126,
			"count":12,
			"type":"VEC3"
		},
		{
			"bufferView":10,
			"componentType":5126,
			"count":12,
			"type":"VEC2"
		},
		{
			"bufferView":11,
			"componentType":5123,
			"count":18,
			"type":"SCALAR"
		},
		{
			"bufferView":12,
			"componentType":5126,
			"count":87,
			"max":[
				-1.3593109846115112,
				2.3287930488586426,
				7.8078742027282715
			],
			"min":[
				-3.4138145446777344,
				0.9251720309257507,
				7.641693592071533
			],
			"type":"VEC3"
		},
		{
			"bufferView":13,
			"componentType":5126,
			"count":87,
			"type":"VEC3"
		},
		{
			"bufferView":14,
			"componentType":5126,
			"count":87,
			"type":"VEC2"
		},
		{
			"bufferView":15,
			"componentType":5123,
			"count":180,
			"type":"SCALAR"
		},
		{
			"bufferView":16,
			"componentType":5126,
			"count":48,
			"max":[
				-3.9175946712493896,
				2.188067674636841,
				7.8242268562316895
			],
			"min":[
				-4.855612754821777,
				0.12538361549377441,
				7.673144340515137
			],
			"type":"VEC3"
		},
		{
			"bufferView":17,
			"componentType":5126,
			"count":48,
			"type":"VEC3"
		},
		{
			"bufferView":18,
			"componentType":5126,
			"count":48,
			"type":"VEC2"
		},
		{
			"bufferView":19,
			"componentType":5123,
			"count":84,
			"type":"SCALAR"
		}
	],
	"bufferViews":[
		{
			"buffer":0,
			"byteLength":3024,
			"byteOffset":0,
			"target":34962
		},
		{
			"buffer":0,
			"byteLength":3024,
			"byteOffset":3024,
			"target":34962
		},
		{
			"buffer":0,
			"byteLength":2016,
			"byteOffset":6048,
			"target":34962
		},
		{
			"buffer":0,
			"byteLength":864,
			"byteOffset":8064,
			"target":34963
		},
		{
			"buffer":0,
			"byteLength":48,
			"byteOffset":8928,
			"target":34962
		},
		{
			"buffer":0,
			"byteLength":48,
			"byteOffset":8976,
			"target":34962
		},
		{
			"buffer":0,
			"byteLength":32,
			"byteOffset":9024,
			"target":34962
		},
		{
			"buffer":0,
			"byteLength":12,
			"byteOffset":9056,
			"target":34963
		},
		{
			"buffer":0,
			"byteLength":144,
			"byteOffset":9068,
			"target":34962
		},
		{
			"buffer":0,
			"byteLength":144,
			"byteOffset":9212,
			"target":34962
		},
		{
			"buffer":0,
			"byteLength":96,
			"byteOffset":9356,
			"target":34962
		},
		{
			"buffer":0,
			"byteLength":36,
			"byteOffset":9452,
			"target":34963
		},
		{
			"buffer":0,
			"byteLength":1044,
			"byteOffset":9488,
			"target":34962
		},
		{
			"buffer":0,
			"byteLength":1044,
			"byteOffset":10532,
			"target":34962
		},
		{
			"buffer":0,
			"byteLength":696,
			"byteOffset":11576,
			"target":34962
		},
		{
			"buffer":0,
			"byteLength":360,
			"byteOffset":12272,
			"target":34963
		},
		{
			"buffer":0,
			"byteLength":576,
			"byteOffset":12632,
			"target":34962
		},
		{
			"buffer":0,
			"byteLength":576,
			"byteOffset":13208,
			"target":34962
		},
		{
			"buffer":0,
			"byteLength":384,
			"byteOffset":13784,
			"target":34962
		},
		{
			"buffer":0,
			"byteLength":168,
			"byteOffset":14168,
			"target":34963
		}
	],
	"samplers":[
		{
			"magFilter":9728,
			"minFilter":9984
		},
		{
			"magFilter":9729,
			"minFilter":9987
		}
	],
	"buffers":[
		{
			"byteLength":14336,
			"uri":"MainRoomNew.bin"
		}
	]
}
