{
	"asset":{
		"generator":"Khronos glTF Blender I/O v4.4.56",
		"version":"2.0"
	},
	"scene":0,
	"scenes":[
		{
			"name":"Scene",
			"nodes":[
				2
			]
		}
	],
	"nodes":[
		{
			"mesh":0,
			"name":"Plane",
			"scale":[
				0.26963043212890625,
				0.26963043212890625,
				0.26963043212890625
			],
			"translation":[
				-0.26677533984184265,
				0.7821050882339478,
				-1.3491854667663574
			]
		},
		{
			"mesh":1,
			"name":"Plane.001"
		},
		{
			"children":[
				0,
				1
			],
			"mesh":2,
			"name":"Cube.001"
		}
	],
	"materials":[
		{
			"doubleSided":true,
			"name":"Mat_ZamrazarkaDrzwi",
			"pbrMetallicRoughness":{
				"baseColorTexture":{
					"index":0
				},
				"metallicFactor":0,
				"metallicRoughnessTexture":{
					"index":1
				}
			}
		},
		{
			"doubleSided":true,
			"name":"Mat_Zamrazarka",
			"pbrMetallicRoughness":{
				"baseColorTexture":{
					"index":2
				},
				"metallicFactor":0,
				"metallicRoughnessTexture":{
					"index":3
				}
			}
		}
	],
	"meshes":[
		{
			"name":"Plane.001",
			"primitives":[
				{
					"attributes":{
						"POSITION":0,
						"NORMAL":1,
						"TEXCOORD_0":2
					},
					"indices":3,
					"material":0
				}
			]
		},
		{
			"name":"Plane.002",
			"primitives":[
				{
					"attributes":{
						"POSITION":4,
						"NORMAL":5,
						"TEXCOORD_0":6
					},
					"indices":7,
					"material":0
				}
			]
		},
		{
			"name":"Cube.001",
			"primitives":[
				{
					"attributes":{
						"POSITION":8,
						"NORMAL":9,
						"TEXCOORD_0":10
					},
					"indices":11,
					"material":1
				}
			]
		}
	],
	"textures":[
		{
			"sampler":0,
			"source":0
		},
		{
			"sampler":0,
			"source":1
		},
		{
			"sampler":0,
			"source":0
		},
		{
			"sampler":0,
			"source":1
		}
	],
	"images":[
		{
			"mimeType":"image/png",
			"name":"Zamrazarka_Base",
			"uri":"Textures/Zamrazarka_Base.png"
		},
		{
			"mimeType":"image/png",
			"name":"Zamrazarka_Roughness",
			"uri":"Textures/Zamrazarka_Roughness.png"
		}
	],
	"accessors":[
		{
			"bufferView":0,
			"componentType":5126,
			"count":52,
			"max":[
				0.8692477941513062,
				0.27518483996391296,
				2.084839105606079
			],
			"min":[
				-1.3540456295013428,
				-0.13563433289527893,
				-1
			],
			"type":"VEC3"
		},
		{
			"bufferView":1,
			"componentType":5126,
			"count":52,
			"type":"VEC3"
		},
		{
			"bufferView":2,
			"componentType":5126,
			"count":52,
			"type":"VEC2"
		},
		{
			"bufferView":3,
			"componentType":5123,
			"count":78,
			"type":"SCALAR"
		},
		{
			"bufferView":4,
			"componentType":5126,
			"count":52,
			"max":[
				-0.03239968419075012,
				0.8478758931159973,
				-0.026874303817749023
			],
			"min":[
				-0.6318672895431519,
				0.7371065616607666,
				-0.8586407899856567
			],
			"type":"VEC3"
		},
		{
			"bufferView":5,
			"componentType":5126,
			"count":52,
			"type":"VEC3"
		},
		{
			"bufferView":6,
			"componentType":5126,
			"count":52,
			"type":"VEC2"
		},
		{
			"bufferView":7,
			"componentType":5123,
			"count":78,
			"type":"SCALAR"
		},
		{
			"bufferView":8,
			"componentType":5126,
			"count":118,
			"max":[
				0,
				0.8746166229248047,
				8.940696716308594e-08
			],
			"min":[
				-0.6614828109741211,
				0,
				-1.6456903219223022
			],
			"type":"VEC3"
		},
		{
			"bufferView":9,
			"componentType":5126,
			"count":118,
			"type":"VEC3"
		},
		{
			"bufferView":10,
			"componentType":5126,
			"count":118,
			"type":"VEC2"
		},
		{
			"bufferView":11,
			"componentType":5123,
			"count":216,
			"type":"SCALAR"
		}
	],
	"bufferViews":[
		{
			"buffer":0,
			"byteLength":624,
			"byteOffset":0,
			"target":34962
		},
		{
			"buffer":0,
			"byteLength":624,
			"byteOffset":624,
			"target":34962
		},
		{
			"buffer":0,
			"byteLength":416,
			"byteOffset":1248,
			"target":34962
		},
		{
			"buffer":0,
			"byteLength":156,
			"byteOffset":1664,
			"target":34963
		},
		{
			"buffer":0,
			"byteLength":624,
			"byteOffset":1820,
			"target":34962
		},
		{
			"buffer":0,
			"byteLength":624,
			"byteOffset":2444,
			"target":34962
		},
		{
			"buffer":0,
			"byteLength":416,
			"byteOffset":3068,
			"target":34962
		},
		{
			"buffer":0,
			"byteLength":156,
			"byteOffset":3484,
			"target":34963
		},
		{
			"buffer":0,
			"byteLength":1416,
			"byteOffset":3640,
			"target":34962
		},
		{
			"buffer":0,
			"byteLength":1416,
			"byteOffset":5056,
			"target":34962
		},
		{
			"buffer":0,
			"byteLength":944,
			"byteOffset":6472,
			"target":34962
		},
		{
			"buffer":0,
			"byteLength":432,
			"byteOffset":7416,
			"target":34963
		}
	],
	"samplers":[
		{
			"magFilter":9729,
			"minFilter":9987
		}
	],
	"buffers":[
		{
			"byteLength":7848,
			"uri":"Zamrazarka.bin"
		}
	]
}
