{
	"asset":{
		"generator":"Khronos glTF Blender I/O v5.0.21",
		"version":"2.0"
	},
	"scene":0,
	"scenes":[
		{
			"name":"Scene",
			"nodes":[
				0
			]
		}
	],
	"nodes":[
		{
			"mesh":0,
			"name":"Bulb",
			"scale":[
				0.036251913756132126,
				0.036251913756132126,
				0.036251913756132126
			],
			"translation":[
				1.208484172821045e-05,
				-0.41307106614112854,
				-4.939362406730652e-05
			]
		}
	],
	"materials":[
		{
			"alphaMode":"BLEND",
			"doubleSided":true,
			"name":"mat_Bulb",
			"pbrMetallicRoughness":{
				"baseColorTexture":{
					"index":0
				},
				"metallicFactor":0,
				"metallicRoughnessTexture":{
					"index":1
				}
			}
		}
	],
	"meshes":[
		{
			"name":"Icosphere.002",
			"primitives":[
				{
					"attributes":{
						"POSITION":0,
						"NORMAL":1,
						"TEXCOORD_0":2
					},
					"indices":3,
					"material":0
				}
			]
		}
	],
	"textures":[
		{
			"sampler":0,
			"source":0
		},
		{
			"sampler":1,
			"source":1
		}
	],
	"images":[
		{
			"mimeType":"image/png",
			"name":"alpha_texture",
			"uri":"textures/alpha_texture.png"
		},
		{
			"mimeType":"image/png",
			"name":"tex_Bulb_Roughness128",
			"uri":"textures/tex_Bulb_Roughness128.png"
		}
	],
	"accessors":[
		{
			"bufferView":0,
			"componentType":5126,
			"count":73,
			"max":[
				0.9471378326416016,
				11.394462585449219,
				1.0000009536743164
			],
			"min":[
				-0.9549779295921326,
				-1.9403929710388184,
				-0.9999990463256836
			],
			"type":"VEC3"
		},
		{
			"bufferView":1,
			"componentType":5126,
			"count":73,
			"type":"VEC3"
		},
		{
			"bufferView":2,
			"componentType":5126,
			"count":73,
			"type":"VEC2"
		},
		{
			"bufferView":3,
			"componentType":5123,
			"count":261,
			"type":"SCALAR"
		}
	],
	"bufferViews":[
		{
			"buffer":0,
			"byteLength":876,
			"byteOffset":0,
			"target":34962
		},
		{
			"buffer":0,
			"byteLength":876,
			"byteOffset":876,
			"target":34962
		},
		{
			"buffer":0,
			"byteLength":584,
			"byteOffset":1752,
			"target":34962
		},
		{
			"buffer":0,
			"byteLength":522,
			"byteOffset":2336,
			"target":34963
		}
	],
	"samplers":[
		{
			"magFilter":9728,
			"minFilter":9984
		},
		{
			"magFilter":9729,
			"minFilter":9987
		}
	],
	"buffers":[
		{
			"byteLength":2860,
			"uri":"Bulb.bin"
		}
	]
}
