{
	"asset":{
		"generator":"Khronos glTF Blender I/O v5.0.21",
		"version":"2.0"
	},
	"scene":0,
	"scenes":[
		{
			"name":"Scene",
			"nodes":[
				12
			]
		}
	],
	"nodes":[
		{
			"mesh":0,
			"name":"DrzwiHarmonijkowe1.001",
			"rotation":[
				-0.5598233342170715,
				-0.4319697320461273,
				0.43196964263916016,
				0.5598233342170715
			],
			"scale":[
				0.9999997019767761,
				1,
				0.9999998807907104
			],
			"translation":[
				-0.2025243043899536,
				-0.6348697543144226,
				1.3833163059473463e-08
			]
		},
		{
			"children":[
				0
			],
			"name":"Bone.005",
			"rotation":[
				-3.82938623033624e-08,
				-4.131887279562206e-15,
				0.253608763217926,
				0.9673068523406982
			],
			"scale":[
				1,
				0.9999999403953552,
				1
			],
			"translation":[
				1.5170069644909745e-08,
				0.1375935971736908,
				-6.531616136840057e-09
			]
		},
		{
			"mesh":1,
			"name":"DrzwiHarmonijkowe1.006",
			"rotation":[
				-0.4319697618484497,
				-0.5598233938217163,
				0.5598233342170715,
				0.43196964263916016
			],
			"scale":[
				0.9999997019767761,
				1,
				0.9999998807907104
			],
			"translation":[
				0.1350167989730835,
				-0.514975368976593,
				2.8756515391137327e-08
			]
		},
		{
			"children":[
				1,
				2
			],
			"name":"Bone.004",
			"rotation":[
				3.829387296150344e-08,
				-4.590985807358496e-16,
				-0.25360891222953796,
				0.9673068523406982
			],
			"scale":[
				1,
				0.9999999403953552,
				1
			],
			"translation":[
				5.3911826114472206e-09,
				0.13759352266788483,
				4.417711085835663e-09
			]
		},
		{
			"mesh":2,
			"name":"DrzwiHarmonijkowe1.005",
			"rotation":[
				-0.5598234534263611,
				-0.43196970224380493,
				0.431969553232193,
				0.5598233938217163
			],
			"scale":[
				0.9999995827674866,
				1,
				1.0000001192092896
			],
			"translation":[
				-0.13501709699630737,
				-0.37738195061683655,
				1.3833028056353669e-08
			]
		},
		{
			"children":[
				3,
				4
			],
			"name":"Bone.003",
			"rotation":[
				-3.829386585607608e-08,
				-1.0559267727501456e-14,
				0.2536088824272156,
				0.9673068523406982
			],
			"scale":[
				0.9999999403953552,
				1,
				1
			],
			"translation":[
				7.719489047985917e-09,
				0.1375935673713684,
				3.6618463816751046e-09
			]
		},
		{
			"mesh":3,
			"name":"DrzwiHarmonijkowe1.004",
			"rotation":[
				-0.4319697618484497,
				-0.5598233938217163,
				0.5598232746124268,
				0.43196967244148254
			],
			"scale":[
				0.9999996423721313,
				1,
				0.9999999403953552
			],
			"translation":[
				0.06750836968421936,
				-0.2574876546859741,
				2.8756485193071057e-08
			]
		},
		{
			"children":[
				5,
				6
			],
			"name":"Bone.002",
			"rotation":[
				3.8293858750648724e-08,
				-9.181971614716992e-16,
				-0.2536088228225708,
				0.9673068523406982
			],
			"translation":[
				1.6658923129853065e-09,
				0.13759355247020721,
				-5.775751876768709e-09
			]
		},
		{
			"mesh":4,
			"name":"DrzwiHarmonijkowe1.003",
			"rotation":[
				-0.5598233938217163,
				-0.4319697320461273,
				0.43196961283683777,
				0.5598233938217163
			],
			"scale":[
				0.9999997615814209,
				1,
				1
			],
			"translation":[
				-0.06750775873661041,
				-0.11989423632621765,
				1.3833187928469215e-08
			]
		},
		{
			"children":[
				7,
				8
			],
			"name":"Bone.001",
			"rotation":[
				-3.829386940878976e-08,
				-3.672788645886797e-15,
				0.2536088824272156,
				0.9673068523406982
			],
			"translation":[
				1.6658923129853065e-09,
				0.1375935673713684,
				-1.0458616195307968e-09
			]
		},
		{
			"mesh":5,
			"name":"DrzwiHarmonijkowe1.002",
			"rotation":[
				-0.4319697916507721,
				-0.5598233938217163,
				0.5598233342170715,
				0.43196961283683777
			],
			"scale":[
				0.9999997019767761,
				1,
				1
			],
			"translation":[
				-1.9675816531616874e-10,
				-1.1641443364851511e-10,
				2.8756460324075306e-08
			]
		},
		{
			"children":[
				9,
				10
			],
			"name":"Bone",
			"rotation":[
				0.4319697320461273,
				0.5598233938217163,
				-0.5598233342170715,
				0.43196961283683777
			],
			"scale":[
				1,
				1.000000238418579,
				1
			]
		},
		{
			"children":[
				11
			],
			"name":"Armature",
			"translation":[
				-0.00028967857360839844,
				0.1251383125782013,
				0.007236480712890625
			]
		}
	],
	"animations":[
		{
			"channels":[
				{
					"sampler":0,
					"target":{
						"node":11,
						"path":"translation"
					}
				},
				{
					"sampler":1,
					"target":{
						"node":11,
						"path":"rotation"
					}
				},
				{
					"sampler":2,
					"target":{
						"node":11,
						"path":"scale"
					}
				},
				{
					"sampler":3,
					"target":{
						"node":9,
						"path":"translation"
					}
				},
				{
					"sampler":4,
					"target":{
						"node":9,
						"path":"rotation"
					}
				},
				{
					"sampler":5,
					"target":{
						"node":9,
						"path":"scale"
					}
				},
				{
					"sampler":6,
					"target":{
						"node":7,
						"path":"translation"
					}
				},
				{
					"sampler":7,
					"target":{
						"node":7,
						"path":"rotation"
					}
				},
				{
					"sampler":8,
					"target":{
						"node":7,
						"path":"scale"
					}
				},
				{
					"sampler":9,
					"target":{
						"node":5,
						"path":"translation"
					}
				},
				{
					"sampler":10,
					"target":{
						"node":5,
						"path":"rotation"
					}
				},
				{
					"sampler":11,
					"target":{
						"node":5,
						"path":"scale"
					}
				},
				{
					"sampler":12,
					"target":{
						"node":3,
						"path":"translation"
					}
				},
				{
					"sampler":13,
					"target":{
						"node":3,
						"path":"rotation"
					}
				},
				{
					"sampler":14,
					"target":{
						"node":3,
						"path":"scale"
					}
				},
				{
					"sampler":15,
					"target":{
						"node":1,
						"path":"translation"
					}
				},
				{
					"sampler":16,
					"target":{
						"node":1,
						"path":"rotation"
					}
				},
				{
					"sampler":17,
					"target":{
						"node":1,
						"path":"scale"
					}
				}
			],
			"name":"ArmatureAction",
			"samplers":[
				{
					"input":23,
					"interpolation":"STEP",
					"output":24
				},
				{
					"input":25,
					"interpolation":"LINEAR",
					"output":26
				},
				{
					"input":23,
					"interpolation":"STEP",
					"output":27
				},
				{
					"input":23,
					"interpolation":"LINEAR",
					"output":28
				},
				{
					"input":25,
					"interpolation":"LINEAR",
					"output":29
				},
				{
					"input":23,
					"interpolation":"STEP",
					"output":30
				},
				{
					"input":23,
					"interpolation":"LINEAR",
					"output":31
				},
				{
					"input":25,
					"interpolation":"LINEAR",
					"output":32
				},
				{
					"input":23,
					"interpolation":"LINEAR",
					"output":33
				},
				{
					"input":23,
					"interpolation":"LINEAR",
					"output":34
				},
				{
					"input":25,
					"interpolation":"LINEAR",
					"output":35
				},
				{
					"input":23,
					"interpolation":"LINEAR",
					"output":36
				},
				{
					"input":23,
					"interpolation":"LINEAR",
					"output":37
				},
				{
					"input":25,
					"interpolation":"LINEAR",
					"output":38
				},
				{
					"input":23,
					"interpolation":"LINEAR",
					"output":39
				},
				{
					"input":23,
					"interpolation":"LINEAR",
					"output":40
				},
				{
					"input":25,
					"interpolation":"LINEAR",
					"output":41
				},
				{
					"input":23,
					"interpolation":"STEP",
					"output":42
				}
			]
		}
	],
	"materials":[
		{
			"doubleSided":true,
			"name":"mat_DrzwiHarmonijkowe",
			"pbrMetallicRoughness":{
				"baseColorTexture":{
					"index":0
				},
				"metallicFactor":0,
				"metallicRoughnessTexture":{
					"index":1
				}
			}
		}
	],
	"meshes":[
		{
			"name":"Cube.026",
			"primitives":[
				{
					"attributes":{
						"POSITION":0,
						"NORMAL":1,
						"TEXCOORD_0":2
					},
					"indices":3,
					"material":0
				}
			]
		},
		{
			"name":"Cube.031",
			"primitives":[
				{
					"attributes":{
						"POSITION":4,
						"NORMAL":5,
						"TEXCOORD_0":6
					},
					"indices":7,
					"material":0
				}
			]
		},
		{
			"name":"Cube.030",
			"primitives":[
				{
					"attributes":{
						"POSITION":8,
						"NORMAL":9,
						"TEXCOORD_0":10
					},
					"indices":11,
					"material":0
				}
			]
		},
		{
			"name":"Cube.029",
			"primitives":[
				{
					"attributes":{
						"POSITION":12,
						"NORMAL":13,
						"TEXCOORD_0":14
					},
					"indices":15,
					"material":0
				}
			]
		},
		{
			"name":"Cube.028",
			"primitives":[
				{
					"attributes":{
						"POSITION":16,
						"NORMAL":17,
						"TEXCOORD_0":18
					},
					"indices":11,
					"material":0
				}
			]
		},
		{
			"name":"Cube.027",
			"primitives":[
				{
					"attributes":{
						"POSITION":19,
						"NORMAL":20,
						"TEXCOORD_0":21
					},
					"indices":22,
					"material":0
				}
			]
		}
	],
	"textures":[
		{
			"sampler":0,
			"source":0
		},
		{
			"sampler":1,
			"source":1
		}
	],
	"images":[
		{
			"mimeType":"image/png",
			"name":"tex_DrzwiHarmonijkowe_Base256",
			"uri":"textures/tex_DrzwiHarmonijkowe_Base256.png"
		},
		{
			"mimeType":"image/png",
			"name":"tex_DrzwiHarmonijkowe_Roughness256",
			"uri":"textures/tex_DrzwiHarmonijkowe_Roughness256.png"
		}
	],
	"skins":[
		{
			"inverseBindMatrices":43,
			"joints":[
				11,
				9,
				7,
				5,
				3,
				1
			],
			"name":"Armature"
		}
	],
	"accessors":[
		{
			"bufferView":0,
			"componentType":5126,
			"count":72,
			"max":[
				0.7985714673995972,
				1.9996339082717896,
				0.018543334677815437
			],
			"min":[
				0.6654760837554932,
				0,
				-0.05617917701601982
			],
			"type":"VEC3"
		},
		{
			"bufferView":1,
			"componentType":5126,
			"count":72,
			"type":"VEC3"
		},
		{
			"bufferView":2,
			"componentType":5126,
			"count":72,
			"type":"VEC2"
		},
		{
			"bufferView":3,
			"componentType":5123,
			"count":132,
			"type":"SCALAR"
		},
		{
			"bufferView":4,
			"componentType":5126,
			"count":24,
			"max":[
				0.6654762029647827,
				1.9996339082717896,
				0.007242679595947266
			],
			"min":[
				0.5323808193206787,
				0,
				-0.04213666915893555
			],
			"type":"VEC3"
		},
		{
			"bufferView":5,
			"componentType":5126,
			"count":24,
			"type":"VEC3"
		},
		{
			"bufferView":6,
			"componentType":5126,
			"count":24,
			"type":"VEC2"
		},
		{
			"bufferView":7,
			"componentType":5123,
			"count":36,
			"type":"SCALAR"
		},
		{
			"bufferView":8,
			"componentType":5126,
			"count":24,
			"max":[
				0.5323809385299683,
				1.9996339082717896,
				0.007242679595947266
			],
			"min":[
				0.3992856740951538,
				0,
				-0.04213666915893555
			],
			"type":"VEC3"
		},
		{
			"bufferView":9,
			"componentType":5126,
			"count":24,
			"type":"VEC3"
		},
		{
			"bufferView":10,
			"componentType":5126,
			"count":24,
			"type":"VEC2"
		},
		{
			"bufferView":11,
			"componentType":5123,
			"count":36,
			"type":"SCALAR"
		},
		{
			"bufferView":12,
			"componentType":5126,
			"count":24,
			"max":[
				0.3992856740951538,
				1.9996339082717896,
				0.007242679595947266
			],
			"min":[
				0.26619040966033936,
				0,
				-0.04213666915893555
			],
			"type":"VEC3"
		},
		{
			"bufferView":13,
			"componentType":5126,
			"count":24,
			"type":"VEC3"
		},
		{
			"bufferView":14,
			"componentType":5126,
			"count":24,
			"type":"VEC2"
		},
		{
			"bufferView":15,
			"componentType":5123,
			"count":36,
			"type":"SCALAR"
		},
		{
			"bufferView":16,
			"componentType":5126,
			"count":24,
			"max":[
				0.26619046926498413,
				1.9996339082717896,
				0.007242679595947266
			],
			"min":[
				0.13309520483016968,
				0,
				-0.04213666915893555
			],
			"type":"VEC3"
		},
		{
			"bufferView":17,
			"componentType":5126,
			"count":24,
			"type":"VEC3"
		},
		{
			"bufferView":18,
			"componentType":5126,
			"count":24,
			"type":"VEC2"
		},
		{
			"bufferView":19,
			"componentType":5126,
			"count":24,
			"max":[
				0.13309526443481445,
				1.9996339082717896,
				0.007242679595947266
			],
			"min":[
				0,
				0,
				-0.04213666915893555
			],
			"type":"VEC3"
		},
		{
			"bufferView":20,
			"componentType":5126,
			"count":24,
			"type":"VEC3"
		},
		{
			"bufferView":21,
			"componentType":5126,
			"count":24,
			"type":"VEC2"
		},
		{
			"bufferView":22,
			"componentType":5123,
			"count":36,
			"type":"SCALAR"
		},
		{
			"bufferView":23,
			"componentType":5126,
			"count":2,
			"max":[
				2.5
			],
			"min":[
				0
			],
			"type":"SCALAR"
		},
		{
			"bufferView":24,
			"componentType":5126,
			"count":2,
			"type":"VEC3"
		},
		{
			"bufferView":25,
			"componentType":5126,
			"count":61,
			"max":[
				2.5
			],
			"min":[
				0
			],
			"type":"SCALAR"
		},
		{
			"bufferView":26,
			"componentType":5126,
			"count":61,
			"type":"VEC4"
		},
		{
			"bufferView":27,
			"componentType":5126,
			"count":2,
			"type":"VEC3"
		},
		{
			"bufferView":28,
			"componentType":5126,
			"count":2,
			"type":"VEC3"
		},
		{
			"bufferView":29,
			"componentType":5126,
			"count":61,
			"type":"VEC4"
		},
		{
			"bufferView":30,
			"componentType":5126,
			"count":2,
			"type":"VEC3"
		},
		{
			"bufferView":31,
			"componentType":5126,
			"count":2,
			"type":"VEC3"
		},
		{
			"bufferView":32,
			"componentType":5126,
			"count":61,
			"type":"VEC4"
		},
		{
			"bufferView":33,
			"componentType":5126,
			"count":2,
			"type":"VEC3"
		},
		{
			"bufferView":34,
			"componentType":5126,
			"count":2,
			"type":"VEC3"
		},
		{
			"bufferView":35,
			"componentType":5126,
			"count":61,
			"type":"VEC4"
		},
		{
			"bufferView":36,
			"componentType":5126,
			"count":2,
			"type":"VEC3"
		},
		{
			"bufferView":37,
			"componentType":5126,
			"count":2,
			"type":"VEC3"
		},
		{
			"bufferView":38,
			"componentType":5126,
			"count":61,
			"type":"VEC4"
		},
		{
			"bufferView":39,
			"componentType":5126,
			"count":2,
			"type":"VEC3"
		},
		{
			"bufferView":40,
			"componentType":5126,
			"count":2,
			"type":"VEC3"
		},
		{
			"bufferView":41,
			"componentType":5126,
			"count":61,
			"type":"VEC4"
		},
		{
			"bufferView":42,
			"componentType":5126,
			"count":2,
			"type":"VEC3"
		},
		{
			"bufferView":43,
			"componentType":5126,
			"count":6,
			"type":"MAT4"
		}
	],
	"bufferViews":[
		{
			"buffer":0,
			"byteLength":864,
			"byteOffset":0,
			"target":34962
		},
		{
			"buffer":0,
			"byteLength":864,
			"byteOffset":864,
			"target":34962
		},
		{
			"buffer":0,
			"byteLength":576,
			"byteOffset":1728,
			"target":34962
		},
		{
			"buffer":0,
			"byteLength":264,
			"byteOffset":2304,
			"target":34963
		},
		{
			"buffer":0,
			"byteLength":288,
			"byteOffset":2568,
			"target":34962
		},
		{
			"buffer":0,
			"byteLength":288,
			"byteOffset":2856,
			"target":34962
		},
		{
			"buffer":0,
			"byteLength":192,
			"byteOffset":3144,
			"target":34962
		},
		{
			"buffer":0,
			"byteLength":72,
			"byteOffset":3336,
			"target":34963
		},
		{
			"buffer":0,
			"byteLength":288,
			"byteOffset":3408,
			"target":34962
		},
		{
			"buffer":0,
			"byteLength":288,
			"byteOffset":3696,
			"target":34962
		},
		{
			"buffer":0,
			"byteLength":192,
			"byteOffset":3984,
			"target":34962
		},
		{
			"buffer":0,
			"byteLength":72,
			"byteOffset":4176,
			"target":34963
		},
		{
			"buffer":0,
			"byteLength":288,
			"byteOffset":4248,
			"target":34962
		},
		{
			"buffer":0,
			"byteLength":288,
			"byteOffset":4536,
			"target":34962
		},
		{
			"buffer":0,
			"byteLength":192,
			"byteOffset":4824,
			"target":34962
		},
		{
			"buffer":0,
			"byteLength":72,
			"byteOffset":5016,
			"target":34963
		},
		{
			"buffer":0,
			"byteLength":288,
			"byteOffset":5088,
			"target":34962
		},
		{
			"buffer":0,
			"byteLength":288,
			"byteOffset":5376,
			"target":34962
		},
		{
			"buffer":0,
			"byteLength":192,
			"byteOffset":5664,
			"target":34962
		},
		{
			"buffer":0,
			"byteLength":288,
			"byteOffset":5856,
			"target":34962
		},
		{
			"buffer":0,
			"byteLength":288,
			"byteOffset":6144,
			"target":34962
		},
		{
			"buffer":0,
			"byteLength":192,
			"byteOffset":6432,
			"target":34962
		},
		{
			"buffer":0,
			"byteLength":72,
			"byteOffset":6624,
			"target":34963
		},
		{
			"buffer":0,
			"byteLength":8,
			"byteOffset":6696
		},
		{
			"buffer":0,
			"byteLength":24,
			"byteOffset":6704
		},
		{
			"buffer":0,
			"byteLength":244,
			"byteOffset":6728
		},
		{
			"buffer":0,
			"byteLength":976,
			"byteOffset":6972
		},
		{
			"buffer":0,
			"byteLength":24,
			"byteOffset":7948
		},
		{
			"buffer":0,
			"byteLength":24,
			"byteOffset":7972
		},
		{
			"buffer":0,
			"byteLength":976,
			"byteOffset":7996
		},
		{
			"buffer":0,
			"byteLength":24,
			"byteOffset":8972
		},
		{
			"buffer":0,
			"byteLength":24,
			"byteOffset":8996
		},
		{
			"buffer":0,
			"byteLength":976,
			"byteOffset":9020
		},
		{
			"buffer":0,
			"byteLength":24,
			"byteOffset":9996
		},
		{
			"buffer":0,
			"byteLength":24,
			"byteOffset":10020
		},
		{
			"buffer":0,
			"byteLength":976,
			"byteOffset":10044
		},
		{
			"buffer":0,
			"byteLength":24,
			"byteOffset":11020
		},
		{
			"buffer":0,
			"byteLength":24,
			"byteOffset":11044
		},
		{
			"buffer":0,
			"byteLength":976,
			"byteOffset":11068
		},
		{
			"buffer":0,
			"byteLength":24,
			"byteOffset":12044
		},
		{
			"buffer":0,
			"byteLength":24,
			"byteOffset":12068
		},
		{
			"buffer":0,
			"byteLength":976,
			"byteOffset":12092
		},
		{
			"buffer":0,
			"byteLength":24,
			"byteOffset":13068
		},
		{
			"buffer":0,
			"byteLength":384,
			"byteOffset":13092
		}
	],
	"samplers":[
		{
			"magFilter":9728,
			"minFilter":9984
		},
		{
			"magFilter":9729,
			"minFilter":9987
		}
	],
	"buffers":[
		{
			"byteLength":13476,
			"uri":"DrzwiHarmonijkowe.bin"
		}
	]
}
